<?xml version="1.0" encoding="UTF-8" standalone="no"?>
<!-- Created with Inkscape (http://www.inkscape.org/) -->

<svg
   xmlns:dc="http://purl.org/dc/elements/1.1/"
   xmlns:cc="http://creativecommons.org/ns#"
   xmlns:rdf="http://www.w3.org/1999/02/22-rdf-syntax-ns#"
   xmlns:svg="http://www.w3.org/2000/svg"
   xmlns="http://www.w3.org/2000/svg"
   xmlns:sodipodi="http://sodipodi.sourceforge.net/DTD/sodipodi-0.dtd"
   xmlns:inkscape="http://www.inkscape.org/namespaces/inkscape"
   width="128"
   height="95"
   viewBox="0 0 33.866669 25.135417"
   version="1.1"
   id="svg3885"
   inkscape:version="0.92.3 (2405546, 2018-03-11)"
   sodipodi:docname="logo-mini.svg">
  <defs
     id="defs3879" />
  <sodipodi:namedview
     id="base"
     pagecolor="#ffffff"
     bordercolor="#666666"
     borderopacity="1.0"
     inkscape:pageopacity="0.0"
     inkscape:pageshadow="2"
     inkscape:zoom="1.979899"
     inkscape:cx="136.80933"
     inkscape:cy="36.69514"
     inkscape:document-units="mm"
     inkscape:current-layer="layer1"
     showgrid="false"
     units="px"
     inkscape:window-width="1600"
     inkscape:window-height="837"
     inkscape:window-x="-8"
     inkscape:window-y="-8"
     inkscape:window-maximized="1" />
  <metadata
     id="metadata3882">
    <rdf:RDF>
      <cc:Work
         rdf:about="">
        <dc:format>image/svg+xml</dc:format>
        <dc:type
           rdf:resource="http://purl.org/dc/dcmitype/StillImage" />
        <dc:title></dc:title>
      </cc:Work>
    </rdf:RDF>
  </metadata>
  <g
     inkscape:label="Capa 1"
     inkscape:groupmode="layer"
     id="layer1"
     transform="translate(0,-271.86456)">
    <g
       id="g4555"
       transform="translate(-0.13363476,7.2746989)">
      <path
         class="cls-5"
         d="m 23.479755,268.91383 c 1.322904,0 2.135168,1.03717 2.304508,2.64584 h -1.087434 c -0.12965,-1.16153 -0.640287,-1.88384 -1.500181,-1.88384 -1.674801,0 -4.026939,2.73579 -5.25724,6.11188 -1.230304,3.37608 -0.867827,6.11187 0.806974,6.11187 1.674801,0 4.003126,-2.70933 5.24401,-6.0616 h 1.103314 c -1.386411,3.70417 -4.310046,6.70983 -6.572214,6.70983 -2.262175,0 -3.026822,-3.05329 -1.656288,-6.82096 1.370541,-3.76766 4.331203,-6.81566 6.614551,-6.81566 m 1.608651,6.92414 v 0 m -1.611301,-7.85019 c -2.680215,0 -5.968967,3.26232 -7.485018,7.42421 -1.005414,2.76754 -0.989534,5.29167 0.045,6.77863 a 2.9448125,2.9448125 0 0 0 2.476485,1.28323 c 2.677565,0 5.865777,-3.12473 7.426808,-7.27604 a 0.9128125,0.9128125 0 0 0 0.0741,-0.35984 0.92604167,0.92604167 0 0 0 -0.926034,-0.92604 h -1.098014 a 0.92604167,0.92604167 0 0 0 -0.870474,0.6059 c -1.246184,3.38666 -3.386652,5.461 -4.373536,5.461 a 0.333375,0.333375 0 0 1 -0.312207,-0.17463 c -0.42333,-0.60325 -0.484187,-2.32833 0.375707,-4.69371 1.240884,-3.41048 3.391942,-5.50333 4.386766,-5.50333 0.418037,0 0.545037,0.74083 0.579437,1.05833 a 0.9286875,0.9286875 0 0 0 0.920744,0.8255 h 1.087424 a 0.92604167,0.92604167 0 0 0 0.920744,-1.02393 c -0.22754,-2.14578 -1.463131,-3.47663 -3.225252,-3.47663 z"
         id="path3785"
         inkscape:connector-curvature="0"
         style="fill:#ffffff;stroke-width:0.26458332" />
      <path
         class="cls-6"
         d="m 24.696829,271.56231 c -0.12965,-1.16152 -0.640287,-1.88383 -1.500181,-1.88383 -1.674801,0 -4.026939,2.73579 -5.25724,6.11187 -1.230304,3.37609 -0.867827,6.11188 0.806974,6.11188 1.674801,0 4.003126,-2.71198 5.24401,-6.06425 h 1.103314 c -1.386411,3.70416 -4.310046,6.70983 -6.572214,6.70983 -2.262175,0 -3.026822,-3.05329 -1.656288,-6.82096 1.370541,-3.76766 4.331203,-6.81566 6.614551,-6.81566 1.322904,0 2.135168,1.03716 2.304508,2.64583 z"
         id="path3787"
         inkscape:connector-curvature="0"
         style="fill:#666666;stroke-width:0.26458332" />
      <path
         class="cls-6"
         d="m 18.516192,282.64571 a 2.1166667,2.1166667 0 0 1 -1.799148,-0.93134 c -0.865184,-1.2356 -0.844017,-3.54277 0.0556,-6.01927 1.381111,-3.79412 4.389403,-6.87916 6.707141,-6.87916 1.344084,0 2.219848,0.99748 2.402408,2.73843 v 0.10848 h -1.285864 v -0.0873 c -0.0741,-0.67204 -0.357187,-1.79652 -1.402291,-1.79652 -1.632471,0 -3.950209,2.71462 -5.164633,6.04837 -0.849314,2.33628 -0.957784,4.47675 -0.264587,5.45042 a 1.1482917,1.1482917 0 0 0 0.989544,0.52917 c 1.619241,0 3.929039,-2.69346 5.14611,-6.00075 l 0.0238,-0.0662 h 1.322914 l -0.0503,0.13494 c -1.410221,3.73327 -4.399996,6.77069 -6.680694,6.77069 z m 4.963563,-13.63398 c -2.241008,0 -5.16464,3.02948 -6.519304,6.75216 -0.881054,2.41565 -0.910154,4.65138 -0.0794,5.83671 a 1.9129375,1.9129375 0 0 0 1.635121,0.84667 c 2.177508,0 5.040283,-2.91042 6.429334,-6.5114 h -0.891634 c -1.251474,3.35227 -3.622129,6.0669 -5.30751,6.0669 a 1.36525,1.36525 0 0 1 -1.153584,-0.61119 c -0.730247,-1.04246 -0.63235,-3.20146 0.26459,-5.63562 1.240881,-3.40519 3.640639,-6.17802 5.34984,-6.17802 0.854604,0 1.431391,0.68527 1.587491,1.88383 h 0.888994 c -0.20637,-1.55575 -1.002764,-2.45004 -2.203968,-2.45004 z"
         id="path3789"
         inkscape:connector-curvature="0"
         style="fill:#666666;stroke-width:0.26458332" />
      <path
         class="cls-5"
         d="m 23.990392,275.83798 c -1.235594,3.35227 -3.571849,6.06425 -5.23872,6.06425 -1.666861,0 -2.034628,-2.73579 -0.806974,-6.11188 1.227661,-3.37608 3.582439,-6.11187 5.25724,-6.11187 0.859894,0 1.370541,0.72231 1.500181,1.88383 a 19.333104,19.333104 0 0 1 -0.711727,4.27567 z"
         id="path3791"
         inkscape:connector-curvature="0"
         style="fill:#ffffff;stroke-width:0.26458332" />
      <path
         class="cls-4"
         d="m 11.179344,278.05519 a 24.786167,24.786167 0 0 0 -4.9661976,1.32291 c 1.1350534,-0.76729 6.0298116,-5.80496 8.5565696,-8.44814 -1.307034,1.94204 -3.214662,6.04573 -3.590372,7.12523 z m 3.860249,-0.21167 a 10.25525,10.25525 0 0 1 1.947318,-0.0317 c -0.336017,-0.22754 -1.722428,-0.32279 -3.071792,-0.20373 -0.264577,0.0238 -0.507997,0.045 -0.740824,0.0847 0.346597,-0.75936 1.730358,-4.09046 2.992412,-6.08542 a 22.897042,22.897042 0 0 1 2.103428,-2.98185 c 0.17992,-0.19315 0.613827,-0.62442 0.838724,-0.54505 a 1.9896667,1.9896667 0 0 0 -1.587491,-0.49212 c -0.330727,0.0688 -0.978954,0.75671 -1.354661,1.18269 -2.931565,3.29406 -12.1760474,10.64154 -13.3428508,11.54906 -0.2645867,0.2196 0.6879067,1.10067 0.7937467,1.09273 0.2645767,-0.0212 1.3625901,-1.08479 7.3421341,-2.74902 -0.634997,1.56104 -1.6774404,5.16731 -1.7859204,6.75216 -0.0344,0.51594 0.0476,1.00278 0.4841767,1.27794 a 1.2726458,1.2726458 0 0 0 1.2726437,0.14552 c -0.455077,-0.0185 -0.486827,-0.4101 -0.433917,-0.90752 0.129647,-1.68539 1.399641,-5.40014 2.547925,-7.80521 a 16.3195,16.3195 0 0 1 1.994948,-0.2831 z"
         id="path3793"
         inkscape:connector-curvature="0"
         style="fill:#3fa83d;stroke-width:0.26458332" />
      <path
         class="cls-5"
         d="m 17.778018,267.55387 a 1.9923125,1.9923125 0 0 1 1.322901,0.51065 0.15610417,0.15610417 0 0 0 -0.0609,0 c -0.232827,0 -0.613824,0.37835 -0.777864,0.55562 a 22.897042,22.897042 0 0 0 -2.103428,2.98186 c -1.262054,2.00025 -2.645815,5.33135 -2.992422,6.08542 0.232837,-0.0397 0.486837,-0.0609 0.740834,-0.0847 0.396867,-0.0344 0.793747,-0.0503 1.172094,-0.0503 0.902224,0 1.661571,0.0952 1.899698,0.26458 a 4.5852292,4.5852292 0 0 0 -0.627054,-0.0344 c -0.3863,0 -0.854607,0.0264 -1.322914,0.0661 a 16.3195,16.3195 0 0 0 -2.002888,0.2938 c -1.148284,2.40506 -2.418278,6.11981 -2.547925,7.80521 -0.0529,0.49741 -0.0212,0.889 0.433917,0.90752 A 1.095375,1.095375 0 0 1 10.43053,286.969 1.5345833,1.5345833 0 0 1 9.6367833,286.70442 c -0.4365667,-0.26459 -0.5291667,-0.762 -0.4841867,-1.27794 0.11642,-1.5875 1.1588634,-5.19906 1.7912204,-6.75217 -5.966324,1.65365 -7.0616874,2.71727 -7.3262641,2.73844 v 0 c -0.10584,0 -1.0398134,-0.87577 -0.7937467,-1.09273 1.1615134,-0.90752 10.4059958,-8.255 13.3455008,-11.56494 0.375707,-0.42598 1.023934,-1.11389 1.354661,-1.18269 a 1.5875,1.5875 0 0 1 0.2487,-0.0185 M 6.2130964,279.37283 a 24.786167,24.786167 0 0 1 4.9661976,-1.32292 c 0.37835,-1.0795 2.283338,-5.18318 3.590372,-7.13052 -2.526758,2.64584 -7.4215162,7.67292 -8.5565696,8.44815 M 17.777968,266.62256 v 0 a 2.6458333,2.6458333 0 0 0 -0.386297,0.0291 h -0.0529 c -0.35454,0.0741 -0.825497,0.30428 -1.852071,1.47638 -3.069152,3.43958 -13.1206105,11.37708 -13.2290905,11.45117 l -0.0318,0.0238 a 1.0874375,1.0874375 0 0 0 -0.2883867,1.2356 c 0.1349397,0.37042 0.9472034,1.48696 1.6748001,1.48696 h 0.0741 a 1.6589375,1.6589375 0 0 0 0.6879144,-0.26458 c 0.5291667,-0.29104 1.7938601,-1.00013 5.10643,-2.01613 -0.5609164,1.77007 -1.1509331,4.05077 -1.2435331,5.29167 -0.0635,0.98954 0.2434067,1.70392 0.9154434,2.11667 v 0 a 2.4103542,2.4103542 0 0 0 1.2726434,0.39423 2.016125,2.016125 0 0 0 0.878414,-0.20373 0.92604167,0.92604167 0 0 0 0.0873,-1.62455 v 0.0265 a 0.12964583,0.12964583 0 0 0 0,-0.0317 c 0.10583,-1.37054 1.158864,-4.62756 2.264818,-7.06173 0.391577,-0.0661 0.933974,-0.14023 1.441971,-0.1852 0.507997,-0.045 0.899574,-0.0635 1.240884,-0.0635 a 3.8840833,3.8840833 0 0 1 0.492127,0.0238 0.77258333,0.77258333 0 0 0 0.134937,0 0.92604167,0.92604167 0 0 0 0.529157,-1.69334 c -0.150807,-0.10318 -0.611174,-0.41275 -2.418275,-0.41275 h -0.433918 a 39.952083,39.952083 0 0 1 2.296575,-4.54025 22.116521,22.116521 0 0 1 2.010821,-2.8575 2.794,2.794 0 0 1 0.264577,-0.24606 0.92339583,0.92339583 0 0 0 0.542397,-1.56633 2.9104167,2.9104167 0 0 0 -1.984358,-0.79375 z m -8.0380047,10.7659 c 0.3968767,-0.39423 0.8122767,-0.79375 1.2276637,-1.22502 -0.18521,0.4101 -0.34131,0.77522 -0.465667,1.0742 -0.26458,0.0476 -0.5291567,0.10055 -0.7619967,0.15082 z"
         id="path3795"
         inkscape:connector-curvature="0"
         style="fill:#ffffff;stroke-width:0.26458332" />
      <path
         class="cls-5"
         d="m 11.179344,278.05519 a 24.786167,24.786167 0 0 0 -4.9661976,1.32291 c 1.1350534,-0.76729 6.0298116,-5.80496 8.5565696,-8.44814 -1.307034,1.94204 -3.214662,6.04573 -3.590372,7.12523 z"
         id="path3797"
         inkscape:connector-curvature="0"
         style="fill:#ffffff;stroke-width:0.26458332" />
      <path
         class="cls-5"
         d="m 19.675066,277.2535 a 1.2356042,1.2356042 0 0 1 -1.277931,-1.2065 0.94720833,0.94720833 0 0 1 0.875764,-1.01865 0.66939583,0.66939583 0 0 1 0.624417,0.42334 2.9421667,2.9421667 0 0 0 0.590017,-0.3228 1.0398125,1.0398125 0 0 1 -0.481537,-0.81491 0.83872917,0.83872917 0 0 1 0.224887,-0.6059 c 0.34132,-0.37041 1.238244,-0.59796 2.666985,-0.67733 0.611187,-0.61383 1.777991,-1.81769 2.031988,-2.08492 a 1.2435417,1.2435417 0 0 1 0.894297,-0.49477 1.1879792,1.1879792 0 0 1 0.978944,0.60061 0.66675,0.66675 0 0 1 0,0.60854 0.65352083,0.65352083 0 0 1 -0.367767,0.32014 v 0 h 0.0608 a 1.4631458,1.4631458 0 0 1 0.727614,0.23019 v 0 a 0.67733333,0.67733333 0 0 1 0.529157,-0.26458 0.65616667,0.65616667 0 0 1 0.357187,0.10318 0.66939583,0.66939583 0 0 1 0.29633,0.72232 2.1616458,2.1616458 0 0 1 0.545047,-0.0741 1.1562292,1.1562292 0 0 1 0.687904,0.20109 2.3071667,2.3071667 0 0 1 1.010707,-0.26459 0.79375,0.79375 0 0 1 0.603244,0.26459 1.0080625,1.0080625 0 0 1 0.20638,0.36512 0.70379167,0.70379167 0 0 1 0.545037,0.48684 0.6429375,0.6429375 0 0 1 0.0317,0.20372 c 0,0.49213 -0.415397,0.62707 -0.687917,0.71703 -0.153457,0.0503 -0.407457,0.13229 -0.653517,0.23018 a 0.43391667,0.43391667 0 0 1 0,0.0582 v 0.0476 c -0.164037,0.75141 -1.198551,1.12712 -1.730358,1.12712 a 0.82020833,0.82020833 0 0 1 -0.619127,-0.26458 2.0346458,2.0346458 0 0 1 -0.881054,0.24341 h -0.0688 a 1.1086042,1.1086042 0 0 1 -0.545044,-0.1852 1.0583333,1.0583333 0 0 1 -0.529167,0.15875 0.85989583,0.85989583 0 0 1 -0.616477,-0.28575 0.67733333,0.67733333 0 0 1 -0.452437,0.34925 0.88370833,0.88370833 0 0 1 -0.18521,0.0212 h -0.0238 a 0.79375,0.79375 0 0 1 -0.0767,0.0847 1.4790208,1.4790208 0 0 1 -0.978954,0.43392 1.0742083,1.0742083 0 0 1 -1.055674,-0.889 2.2727708,2.2727708 0 0 1 0.045,-0.70644 c -1.153584,1.16152 -2.262178,2.159 -3.301982,2.159 z"
         id="path3799"
         inkscape:connector-curvature="0"
         style="fill:#ffffff;stroke-width:0.26458332" />
      <path
         class="cls-4"
         d="m 29.702719,274.64206 c 0,0.19315 -0.629704,0.52917 -0.828144,0.57679 a 4.873625,4.873625 0 0 1 0.828144,-0.57679 z m 1.015994,-1.05833 a 1.61925,1.61925 0 0 1 -0.365127,0.45773 c 0,0 0,0.0238 0,0.0238 a 0.87841667,0.87841667 0 0 0 0.463017,-0.37835 c 0.0159,-0.14553 -0.0503,-0.381 -0.193137,-0.381 -0.44715,0 -1.180034,0.381 -1.262064,0.76729 -0.045,0.22489 0.264587,0.40746 0.309567,0.47889 -0.177267,0.0688 -0.926034,0.49742 -0.939264,0.71702 0.0238,0.11377 0.0794,0.20109 0.19314,0.20109 0.330727,0 1.000124,-0.26459 1.071554,-0.59796 0.0159,-0.10583 -0.11112,-0.26458 -0.17727,-0.30692 0.555627,-0.32808 1.561041,-0.59266 1.516061,-0.60854 0,-0.0159 -0.0212,-0.0238 -0.0318,-0.0238 a 4.41325,4.41325 0 0 0 -1.529291,0.56885 c -0.0503,-0.0476 -0.174617,-0.127 -0.153447,-0.21696 0.0767,-0.23018 0.865174,-0.71437 1.098011,-0.69585 z m -1.484311,-0.10054 c 0.0212,0 0.037,0 0,-0.0159 a 0.44714583,0.44714583 0 0 0 -0.309557,-0.0873 c -0.793747,0 -1.918221,0.83079 -1.918221,1.65894 a 0.40745833,0.40745833 0 0 0 0.38629,0.40216 c 0.529167,0.0291 1.587491,-0.70114 1.730368,-1.37583 a 0.54239583,0.54239583 0 0 0 0.15346,0.0185 1.0371667,1.0371667 0 0 0 0.29898,-0.045 0.9128125,0.9128125 0 0 0 0.500057,-0.3175 1.6906875,1.6906875 0 0 1 -0.584727,0.2249 0.44185417,0.44185417 0 0 1 -0.423327,-0.26459 0.1666875,0.1666875 0 0 0 -0.11642,-0.0529 0.52916667,0.52916667 0 0 0 -0.23548,0.21166 0.49741667,0.49741667 0 0 0 0.0582,0.24871 c -0.341307,0.52917 -1.058324,1.32292 -1.354661,1.21444 -0.29633,-0.10848 0.777874,-1.83621 1.698618,-1.83621 0.0265,0.005 0.0661,0.0159 0.11642,0.0212 z m -1.852068,0.26458 c 0.0608,-0.0556 -0.10319,-0.32808 -0.22489,-0.32808 -0.17198,0 -1.058334,0.68527 -1.637771,1.24354 a 1.9896667,1.9896667 0 0 0 -0.264577,0.28575 9.3053958,9.3053958 0 0 1 0.587377,-0.83873 c 0.158747,-0.19844 0.341307,-0.41275 0.407447,-0.40746 0.0662,0.005 0.0609,0.0317 0.0609,0 a 0.42597917,0.42597917 0 0 0 -0.31485,-0.32808 0.1031875,0.1031875 0 0 0 -0.0714,0.0291 3.3734375,3.3734375 0 0 0 -0.529167,0.62971 6.5272708,6.5272708 0 0 0 -0.481537,0.77258 c -0.124347,0.23548 -0.153457,0.37042 -0.137577,0.40746 0.0344,0.14817 0.156097,0.30956 0.309557,0.26458 -0.0767,-0.037 -0.0397,-0.17462 0.0952,-0.33602 0.0582,-0.0714 0.12436,-0.14816 0.18521,-0.21431 a 6.4664167,6.4664167 0 0 1 1.534571,-1.19062 c -0.26458,0.24077 -0.854597,1.09008 -0.854597,1.37848 a 0.37041667,0.37041667 0 0 0 0.0926,0.19843 c 0.0556,0.0609 0.10583,0.10584 0.1561,0.10584 0.306917,0 1.135064,-0.83609 1.587491,-1.32292 0.0159,-0.0159 0,-0.0556 -0.0397,-0.0291 -0.32543,0.30427 -1.058324,1.00012 -1.373174,1.08479 -0.0132,-0.21961 0.775217,-1.30704 0.907517,-1.41023 z m -0.841367,-0.75671 a 4.1962917,4.1962917 0 0 0 0.500057,0.13758 c 0.32544,0.045 0.619117,-0.32279 0.701137,-0.48947 a 0.6985,0.6985 0 0 1 -0.529157,0.28045 0.5476875,0.5476875 0 0 1 -0.15346,-0.0212 c -0.134937,-0.0344 -0.354537,-0.23284 -0.579437,-0.23284 a 0.4365625,0.4365625 0 0 0 -0.468307,0.48155 0.32014583,0.32014583 0 0 1 0.3175,-0.17992 0.8493125,0.8493125 0 0 1 0.206367,0.0185 z m -1.322911,-1.17739 a 15.946437,15.946437 0 0 0 -1.058324,1.91029 c -0.26459,-0.0212 -0.494767,-0.0317 -0.732897,-0.0317 1.677451,-1.77536 1.727721,-1.82563 1.783281,-1.87854 m 0.746124,-0.32015 a 0.41539583,0.41539583 0 0 1 0.24341,-0.15346 0.52916667,0.52916667 0 0 0 -0.375697,-0.22489 c -0.11642,0 -0.22225,0.0926 -0.40746,0.28575 -0.264587,0.28839 -1.703908,1.75947 -2.227775,2.28335 v 0 c -0.677337,0.0265 -2.529408,0.17462 -2.508238,0.59002 0,0.2249 0.28575,0.37571 0.28839,0.28046 0.003,-0.0952 0.611187,-0.48948 1.963198,-0.63765 -0.735534,0.65882 -2.278048,2.27542 -3.365479,2.27542 -0.2196,0 -0.37571,-0.0873 -0.37571,-0.31221 a 0.3095625,0.3095625 0 0 1 0.0847,-0.18785 c -0.0847,0 -0.20373,0.13229 -0.20373,0.3466 a 0.5635625,0.5635625 0 0 0 0.605897,0.52917 c 1.129764,0 2.817795,-2.01877 3.529522,-2.68552 a 6.2917917,6.2917917 0 0 1 0.701144,-0.0291 h 0.19314 c -0.22754,0.49742 -0.574137,1.38642 -0.513287,1.85209 a 0.41010417,0.41010417 0 0 0 0.362477,0.29368 0.83608333,0.83608333 0 0 0 0.529167,-0.26458 1.4869583,1.4869583 0 0 1 -0.439207,0.11906 c -0.0291,0 -0.0635,0 -0.0688,-0.0582 -0.037,-0.33602 0.404807,-1.48695 0.619117,-1.9341 v 0 c 0.478897,0.0344 0.941914,0.13229 0.941914,0.12171 a 3.20675,3.20675 0 0 0 -0.896934,-0.23019 9.4879583,9.4879583 0 0 1 1.322911,-2.28071"
         id="path3801"
         inkscape:connector-curvature="0"
         style="fill:#3fa83d;stroke-width:0.26458332" />
    </g>
  </g>
</svg>
