<?xml version="1.0" encoding="UTF-8" standalone="no"?>
<!-- Created with Inkscape (http://www.inkscape.org/) -->

<svg
   xmlns:dc="http://purl.org/dc/elements/1.1/"
   xmlns:cc="http://creativecommons.org/ns#"
   xmlns:rdf="http://www.w3.org/1999/02/22-rdf-syntax-ns#"
   xmlns:svg="http://www.w3.org/2000/svg"
   xmlns="http://www.w3.org/2000/svg"
   xmlns:sodipodi="http://sodipodi.sourceforge.net/DTD/sodipodi-0.dtd"
   xmlns:inkscape="http://www.inkscape.org/namespaces/inkscape"
   width="192"
   height="192"
   viewBox="0 0 50.800008 50.800025"
   version="1.1"
   id="svg3885"
   inkscape:version="0.92.4 (5da689c313, 2019-01-14)"
   sodipodi:docname="logoAM.svg">
  <defs
     id="defs3879" />
  <sodipodi:namedview
     id="base"
     pagecolor="#ffffff"
     bordercolor="#666666"
     borderopacity="1.0"
     inkscape:pageopacity="0.0"
     inkscape:pageshadow="2"
     inkscape:zoom="2.8"
     inkscape:cx="99.117409"
     inkscape:cy="97.700447"
     inkscape:document-units="mm"
     inkscape:current-layer="layer1"
     showgrid="false"
     units="px"
     inkscape:window-width="1600"
     inkscape:window-height="847"
     inkscape:window-x="-8"
     inkscape:window-y="-8"
     inkscape:window-maximized="1" />
  <metadata
     id="metadata3882">
    <rdf:RDF>
      <cc:Work
         rdf:about="">
        <dc:format>image/svg+xml</dc:format>
        <dc:type
           rdf:resource="http://purl.org/dc/dcmitype/StillImage" />
        <dc:title></dc:title>
      </cc:Work>
    </rdf:RDF>
  </metadata>
  <g
     inkscape:label="Capa 1"
     inkscape:groupmode="layer"
     id="layer1"
     transform="translate(0,-246.19988)">
    <g
       id="g3929"
       transform="matrix(0.93154735,0,0,0.88687757,-1.2751952,25.816177)">
      <path
         class="cls-4"
         d="m 52.73732,283.09819 c -0.666747,0 -0.920744,-0.43921 -0.920744,-1.22238 v -8.29733 c 0,-3.70417 -1.780631,-6.05367 -5.820797,-6.05367 -3.122065,0 -4.963553,1.32292 -6.424044,3.32052 -0.460377,-1.85208 -2.021408,-3.32052 -4.945043,-3.32052 -3.008292,0 -4.870953,1.20121 -6.138294,3.43959 -0.20902,-2.28865 -1.362594,-3.2438 -3.463382,-3.2438 -2.100778,0 -3.103542,0.46038 -3.484539,0.68263 v 3.72533 a 2.2251458,2.2251458 0 0 1 1.209141,-0.37041 0.89958333,0.89958333 0 0 1 0.920747,0.96043 v 14.26105 h 5.32603 v -10.88761 c 0,-2.16164 1.137704,-4.30477 3.481899,-4.30477 1.923508,0 2.563795,0.89958 2.563795,3.00302 v 12.18936 h 5.35249 v -10.88761 c 0,-2.16164 1.214434,-4.30477 3.503062,-4.30477 2.021408,0 2.563805,0.92075 2.563805,3.06388 v 8.24706 c 0,2.50825 1.090074,4.04283 4.103656,4.04283 a 7.5776667,7.5776667 0 0 0 3.381362,-0.70114 v -3.70417 a 2.2489583,2.2489583 0 0 1 -1.209144,0.36248 z m -32.527687,-0.96044 v -7.32631 c 0,-5.36575 -2.481775,-7.28663 -7.246898,-7.28663 -4.0110554,0 -6.2838119,1.07421 -7.828972,1.89971 l 1.7224298,3.94494 a 9.5805625,9.5805625 0 0 1 5.5244652,-1.61131 c 1.852071,0 2.582315,1.02393 2.582315,3.02154 v 0.87312 a 23.137812,23.137812 0 0 0 -4.122186,-0.34396 c -4.2703439,0 -7.4876641,2.59028 -7.4876641,6.42673 0,3.35492 1.9446768,5.52715 5.6858637,5.52715 2.9342144,0 5.3895294,-1.40229 6.3049834,-3.00302 0.36248,2.13519 1.561034,2.88131 3.542752,2.88131 1.981718,0 2.854832,-0.39423 3.463379,-0.70114 v -3.70417 a 2.38125,2.38125 0 0 1 -1.219721,0.35983 0.8810625,0.8810625 0 0 1 -0.920747,-0.95779 z m -5.24666,-2.36273 c 0,1.90236 -1.322911,3.40254 -4.063976,3.40254 -1.7541804,0 -2.4606141,-0.82814 -2.4606141,-1.80181 0,-1.77271 1.7647671,-2.66171 4.1830451,-2.66171 a 11.533187,11.533187 0 0 1 2.341545,0.24077 z"
         id="path3781"
         inkscape:connector-curvature="0"
         style="fill:#3fa83d;stroke-width:0.26458332" />
      <path
         class="cls-5"
         d="m 45.990489,267.52481 c 4.045456,0 5.820797,2.34157 5.820797,6.05367 v 8.29733 c 0,0.79375 0.264577,1.22238 0.920744,1.22238 a 2.2489583,2.2489583 0 0 0 1.201204,-0.35984 v 3.70417 a 7.5776667,7.5776667 0 0 1 -3.381362,0.70115 c -3.013582,0 -4.103656,-1.53459 -4.103656,-4.04284 v -8.2497 c 0,-2.14313 -0.542397,-3.06388 -2.563805,-3.06388 -2.288628,0 -3.503062,2.14313 -3.503062,4.30477 v 10.88761 h -5.34455 v -12.18936 c 0,-2.11667 -0.640287,-3.00302 -2.563805,-3.00302 -2.344185,0 -3.481889,2.14313 -3.481889,4.30477 v 10.88761 h -5.32074 v -14.25046 a 0.89958333,0.89958333 0 0 0 -0.920747,-0.97102 2.2251458,2.2251458 0 0 0 -1.201201,0.35983 v -3.7121 c 0.380997,-0.22225 1.349361,-0.68263 3.484539,-0.68263 2.135178,0 3.254362,0.95515 3.455442,3.24115 1.259411,-2.24102 3.122062,-3.43959 6.125064,-3.43959 2.910405,0 4.484666,1.47902 4.945043,3.32052 1.468421,-1.9976 3.309909,-3.32052 6.431984,-3.32052 m -33.027754,0 c 4.762473,0 7.246898,1.92088 7.246898,7.28663 v 7.32631 a 0.8810625,0.8810625 0 0 0 0.920747,0.96044 2.38125,2.38125 0 0 0 1.219721,-0.35984 v 3.70417 c -0.608547,0.30692 -1.518701,0.70115 -3.463379,0.70115 -1.944681,0 -3.174982,-0.74613 -3.542752,-2.88132 -0.915454,1.5875 -3.370769,3.00303 -6.3049834,3.00303 -3.7411869,-0.003 -5.6858637,-2.17488 -5.6858637,-5.5298 0,-3.83645 3.2173202,-6.42673 7.4876641,-6.42673 a 23.137812,23.137812 0 0 1 4.122186,0.33338 v -0.87313 c 0,-1.9976 -0.732894,-3.02154 -2.582315,-3.02154 a 9.5805625,9.5805625 0 0 0 -5.5244652,1.6219 L 5.133763,269.42452 c 1.5451601,-0.8255 3.8179166,-1.89971 7.828972,-1.89971 m -2.063738,15.65275 c 2.743715,0 4.063976,-1.50018 4.063976,-3.40254 v -0.82021 a 11.533187,11.533187 0 0 0 -2.349485,-0.24077 c -2.418278,0 -4.1830351,0.889 -4.1830351,2.66171 0,0.97367 0.7064237,1.80181 2.4606041,1.80181 m 35.099432,-16.71108 c -2.497658,0 -4.497896,0.77787 -6.143597,2.42358 -1.039804,-1.54516 -2.891872,-2.42358 -5.22549,-2.42358 -2.394465,0 -4.278286,0.71173 -5.709677,2.16958 -0.727597,-1.29646 -2.039918,-1.97114 -3.878769,-1.97114 -1.719781,0 -3.069152,0.27781 -4.013706,0.82285 l -0.529157,0.30692 v 2.60085 a 6.0325,6.0325 0 0 0 -1.389064,-2.00819 c -1.367881,-1.29381 -3.373409,-1.92087 -6.138294,-1.92087 -4.5402221,0 -7.0987286,1.3679 -8.3263887,2.02406 l -0.8625367,0.46302 0.39158,0.89429 1.7197868,3.94494 0.4974067,1.14036 1.0451034,-0.67205 a 8.5751458,8.5751458 0 0 1 4.9529715,-1.44462 c 1.267344,0 1.486941,0.65352 1.518691,1.61396 a 24.108833,24.108833 0 0 0 -3.058562,-0.16934 c -4.9529706,-0.0106 -8.5459875,3.13796 -8.5459875,7.47448 0,4.06136 2.5849635,6.58548 6.7441871,6.58548 2.2383574,0 4.4264554,-0.77787 5.9081064,-2.00818 0.751417,1.26735 2.053158,1.88647 3.939629,1.88647 1.886468,0 2.910402,-0.32808 3.725309,-0.70908 v 0.54769 h 7.442688 v -11.94594 c 0,-1.2065 0.510647,-3.24644 2.423575,-3.24644 0.918094,0 1.119174,0.24607 1.185324,0.32544 0.211667,0.26458 0.320147,0.79375 0.320147,1.61925 v 13.24769 h 7.469138 v -11.94594 c 0,-2.23044 1.267354,-3.24644 2.444738,-3.24644 0.955144,0 1.142991,0.24077 1.203851,0.32015 0.19843,0.26458 0.30162,0.82285 0.30162,1.6854 v 8.24706 c 0,3.33639 1.783278,5.10116 5.16199,5.10116 a 8.5381042,8.5381042 0 0 0 3.680339,-0.73818 l 0.10318,-0.0423 0.656167,-0.26458 v -6.50081 l -1.682741,1.22766 a 1.1641667,1.1641667 0 0 1 -0.433917,0.14817 c 0,-0.0423 0,-0.0926 0,-0.15346 v -8.29737 c 0,-4.51908 -2.508238,-7.112 -6.879121,-7.112 z m -24.762222,7.21254 0.949857,-0.6985 a 1.11125,1.11125 0 0 1 0.433907,-0.14287 v 8.54868 l -0.769927,0.42598 a 1.635125,1.635125 0 0 1 -0.574147,0.22225 v -7.22312 c 0,-0.39159 0,-0.76994 -0.0397,-1.13242 z m -10.31869,8.44021 c -0.9313237,0 -1.4022807,-0.24871 -1.4022807,-0.74348 0,-0.37571 0.224897,-1.60337 3.1247117,-1.60337 a 9.8292708,9.8292708 0 0 1 1.283221,0.0794 c -0.037,1.46315 -1.100664,2.26748 -3.005652,2.26748 z"
         id="path3783"
         inkscape:connector-curvature="0"
         style="fill:#ffffff;stroke-width:0.26458332" />
    </g>
  </g>
</svg>
